<?xml version="1.0" standalone="no"?>
<!DOCTYPE svg PUBLIC "-//W3C//DTD SVG 20010904//EN"
 "http://www.w3.org/TR/2001/REC-SVG-20010904/DTD/svg10.dtd">
<svg version="1.0" xmlns="http://www.w3.org/2000/svg"
 width="292.000000pt" height="292.000000pt" viewBox="0 0 292.000000 292.000000"
 preserveAspectRatio="xMidYMid meet">
<metadata>
Created by potrace 1.11, written by Peter Selinger 2001-2013
</metadata>
<g transform="translate(0.000000,292.000000) scale(0.100000,-0.100000)"
fill="#000000" stroke="none">
<path d="M1378 2675 c-2 -1 -34 -5 -73 -9 -242 -21 -482 -124 -670 -286 -479
-413 -561 -1140 -185 -1641 230 -306 575 -485 950 -491 97 -1 236 8 251 18 4
2 24 6 45 10 54 8 197 60 279 101 127 63 171 125 163 228 -13 161 -167 239
-318 161 -128 -66 -229 -94 -360 -100 -272 -13 -537 119 -690 344 -162 238
-185 550 -58 800 143 282 404 443 718 443 136 0 229 -22 360 -86 103 -50 171
-57 238 -25 120 57 153 215 66 317 -56 64 -278 166 -410 187 -21 3 -42 8 -45
10 -13 7 -254 25 -261 19z"/>
<path d="M1714 1706 c-46 -15 -61 -26 -84 -62 -17 -28 -26 -54 -24 -72 10 -86
53 -121 196 -157 125 -33 158 -65 104 -101 -43 -28 -129 -9 -248 54 -8 4 -58
-68 -58 -84 0 -14 104 -70 150 -79 107 -23 227 2 279 58 32 35 40 109 17 152
-25 47 -81 74 -239 116 -77 20 -94 56 -36 79 37 16 114 7 174 -19 26 -12 49
-21 50 -21 1 0 15 19 30 41 22 33 24 43 13 51 -91 61 -219 79 -324 44z"/>
<path d="M1110 1704 c-14 -10 -29 -24 -33 -31 -11 -18 -27 -7 -27 18 0 16 -7
19 -50 19 l-50 0 0 -250 0 -250 60 0 60 0 0 184 c0 196 5 216 50 216 43 0 50
-33 50 -222 l0 -178 60 0 60 0 0 181 c0 105 4 188 10 200 14 26 55 24 74 -3
13 -18 16 -56 16 -200 l0 -178 60 0 60 0 0 194 c0 106 -3 207 -6 223 -18 93
-127 124 -198 58 l-27 -25 -23 26 c-29 35 -108 44 -146 18z"/>
<path d="M2310 1704 c-14 -10 -29 -24 -33 -31 -11 -18 -27 -7 -27 18 0 16 -7
19 -50 19 l-50 0 0 -250 0 -250 60 0 60 0 0 184 c0 199 4 216 54 216 39 0 46
-36 46 -225 l0 -175 60 0 60 0 0 181 c0 105 4 188 10 200 14 26 55 24 74 -3
13 -18 16 -56 16 -200 l0 -178 60 0 60 0 0 194 c0 106 -3 207 -6 223 -10 48
-44 84 -87 90 -51 7 -78 -1 -112 -33 l-28 -26 -22 27 c-28 36 -107 46 -145 19z"/>
</g>
</svg>
