<?xml version="1.0" standalone="no"?>
<!DOCTYPE svg PUBLIC "-//W3C//DTD SVG 20010904//EN"
 "http://www.w3.org/TR/2001/REC-SVG-20010904/DTD/svg10.dtd">
<svg version="1.0" xmlns="http://www.w3.org/2000/svg"
 width="292.000000pt" height="292.000000pt" viewBox="0 0 292.000000 292.000000"
 preserveAspectRatio="xMidYMid meet">
<metadata>
Created by potrace 1.11, written by Peter Selinger 2001-2013
</metadata>
<g transform="translate(0.000000,292.000000) scale(0.100000,-0.100000)"
fill="#000000" stroke="none">
<path d="M1130 2704 c-99 -13 -210 -38 -288 -65 -710 -250 -1037 -1063 -697
-1736 65 -130 132 -221 238 -326 174 -170 406 -290 657 -338 97 -19 338 -16
443 4 276 55 540 208 709 410 38 47 48 65 48 95 0 46 -22 80 -64 97 -52 22
-77 9 -172 -87 -142 -144 -274 -226 -449 -281 -476 -149 -995 72 -1225 519
-76 148 -110 295 -110 473 1 731 738 1226 1420 955 137 -55 242 -128 376 -263
76 -76 84 -81 123 -81 59 0 101 41 101 99 0 33 -8 50 -48 98 -164 197 -410
343 -682 404 -83 19 -307 32 -380 23z"/>
<path d="M625 1825 c-38 -10 -60 -24 -92 -60 l-43 -47 0 51 0 51 -50 0 -50 0
0 -390 0 -390 54 0 55 0 3 273 c3 255 4 275 25 319 26 58 71 88 131 88 52 0
85 -28 101 -86 7 -24 11 -149 11 -316 l0 -278 54 0 55 0 3 278 c3 253 5 280
23 317 37 73 118 105 184 71 53 -28 56 -45 59 -368 l3 -298 56 0 55 0 -4 313
c-5 329 -8 352 -55 415 -32 42 -74 63 -131 64 -72 2 -116 -18 -166 -73 -47
-52 -56 -58 -56 -35 0 20 -47 74 -79 90 -41 21 -92 25 -146 11z"/>
<path d="M1571 1829 c-113 -22 -171 -86 -179 -197 -9 -135 42 -192 227 -253
127 -42 146 -52 161 -89 10 -24 10 -39 1 -70 -33 -112 -225 -120 -280 -11 -12
22 -21 50 -21 61 0 20 -4 21 -47 14 -27 -3 -52 -10 -57 -14 -12 -12 19 -110
47 -147 53 -72 113 -98 217 -97 85 1 130 17 183 63 68 60 93 198 52 284 -25
52 -72 82 -217 133 -83 30 -130 52 -145 69 -71 81 34 178 156 145 47 -13 76
-40 92 -87 9 -28 14 -32 35 -28 85 18 81 13 63 78 -29 105 -159 171 -288 146z"/>
<path d="M2265 1825 c-38 -10 -60 -24 -92 -60 l-43 -47 0 51 0 51 -50 0 -50 0
0 -390 0 -390 54 0 55 0 3 273 c3 255 4 275 25 319 26 58 71 88 131 88 52 0
85 -28 101 -86 7 -24 11 -149 11 -316 l0 -278 54 0 55 0 3 278 c3 253 5 280
23 317 37 73 118 105 184 71 53 -28 56 -45 59 -368 l3 -298 56 0 55 0 -4 313
c-5 329 -8 351 -55 415 -32 42 -74 63 -131 64 -72 2 -116 -18 -166 -73 -47
-52 -56 -58 -56 -35 0 20 -47 74 -79 90 -41 21 -92 25 -146 11z"/>
</g>
</svg>
