<?xml version="1.0" standalone="no"?>
<!DOCTYPE svg PUBLIC "-//W3C//DTD SVG 20010904//EN"
 "http://www.w3.org/TR/2001/REC-SVG-20010904/DTD/svg10.dtd">
<svg version="1.0" xmlns="http://www.w3.org/2000/svg"
 width="292.000000pt" height="292.000000pt" viewBox="0 0 292.000000 292.000000"
 preserveAspectRatio="xMidYMid meet">
<metadata>
Created by potrace 1.11, written by Peter Selinger 2001-2013
</metadata>
<g transform="translate(0.000000,292.000000) scale(0.100000,-0.100000)"
fill="#000000" stroke="none">
<path d="M1200 2793 c-66 -8 -215 -44 -282 -68 -279 -100 -519 -289 -681 -535
-221 -338 -276 -796 -140 -1175 129 -358 397 -644 738 -786 55 -23 151 -55
215 -71 101 -26 135 -30 280 -33 105 -2 190 2 235 10 39 7 84 16 101 19 110
21 356 128 412 180 65 59 98 173 72 252 -36 109 -129 178 -240 179 -55 0 -75
-5 -135 -36 -152 -79 -291 -111 -455 -105 -572 23 -948 608 -738 1146 128 328
452 538 808 525 133 -4 234 -31 366 -95 88 -43 111 -50 161 -50 143 1 247 105
247 250 -1 119 -51 181 -208 259 -122 60 -228 95 -381 127 -37 7 -326 13 -375
7z"/>
<path d="M1070 1740 c-44 -8 -79 -26 -107 -56 l-22 -24 -3 37 c-3 35 -5 37
-36 38 -18 0 -36 -4 -40 -10 -4 -5 -7 -124 -7 -262 l-1 -253 46 0 45 0 0 173
c0 188 8 223 54 256 55 38 129 31 150 -15 7 -15 11 -98 12 -219 l1 -195 43 0
43 0 4 188 c3 168 5 190 23 214 27 37 79 57 123 47 65 -14 67 -20 69 -222 1
-100 2 -192 2 -204 1 -20 6 -23 47 -23 l46 0 -4 213 c-3 239 -10 263 -81 303
-63 35 -165 17 -216 -38 l-20 -21 -29 31 c-16 17 -42 34 -58 37 -16 4 -33 8
-39 9 -5 1 -26 -1 -45 -4z"/>
<path d="M1802 1740 c-142 -32 -181 -203 -60 -266 16 -8 64 -24 106 -35 107
-27 130 -38 139 -63 12 -38 12 -45 -8 -70 -25 -31 -94 -47 -152 -34 -51 11
-75 31 -85 72 -8 32 -9 32 -75 27 -41 -3 22 -129 78 -155 112 -54 272 -19 319
68 20 37 23 98 7 138 -15 39 -48 57 -162 89 -128 35 -149 49 -149 94 0 28 5
37 30 50 63 32 158 12 183 -39 12 -26 21 -32 51 -34 37 -3 41 2 36 43 -9 81
-143 141 -258 115z"/>
<path d="M2395 1740 c-39 -8 -76 -28 -96 -52 -23 -25 -29 -23 -29 12 0 29 -4
33 -35 33 -54 0 -50 19 -50 -263 l0 -260 42 0 c40 0 43 2 44 28 0 15 1 95 2
177 3 170 14 206 76 236 64 30 121 12 136 -43 2 -5 3 -96 4 -203 l1 -195 45 0
45 0 1 163 c1 176 3 200 21 235 13 25 72 59 98 56 8 -1 22 -2 31 -3 9 0 27
-10 40 -20 24 -19 24 -22 26 -213 1 -106 2 -199 2 -205 1 -9 17 -13 46 -13
l46 0 -1 204 c-1 189 -3 208 -23 248 -28 54 -72 80 -140 80 -58 1 -103 -18
-142 -59 -14 -16 -25 -22 -25 -16 0 20 -49 62 -78 69 -50 10 -57 10 -87 4z"/>
</g>
</svg>
