<?xml version="1.0" standalone="no"?>
<!DOCTYPE svg PUBLIC "-//W3C//DTD SVG 20010904//EN"
 "http://www.w3.org/TR/2001/REC-SVG-20010904/DTD/svg10.dtd">
<svg version="1.0" xmlns="http://www.w3.org/2000/svg"
 width="260.000000pt" height="260.000000pt" viewBox="0 0 260.000000 260.000000"
 preserveAspectRatio="xMidYMid meet">
<metadata>
Created by potrace 1.11, written by Peter Selinger 2001-2013
</metadata>
<g transform="translate(0.000000,260.000000) scale(0.100000,-0.100000)"
fill="#000000" stroke="none">
<path d="M962 2305 c-124 -23 -254 -72 -357 -133 -483 -289 -667 -877 -434
-1390 61 -136 190 -299 307 -391 156 -122 363 -207 555 -228 262 -28 586 57
718 187 171 170 48 461 -196 463 -49 0 -75 -7 -137 -36 -109 -51 -179 -69
-269 -69 -241 1 -452 166 -514 402 -14 52 -15 207 -2 255 50 188 194 335 377
384 138 38 259 24 395 -43 119 -59 194 -66 279 -25 178 85 214 316 71 448 -71
65 -252 143 -410 176 -62 14 -310 13 -383 0z"/>
<path d="M1165 1427 c-16 -5 -40 -19 -52 -30 l-23 -20 0 26 c0 24 -4 27 -29
25 -37 -3 -36 0 -36 -208 l1 -165 32 -3 32 -3 0 119 c0 65 5 133 10 149 13 35
47 56 90 56 51 0 58 -20 56 -180 l-1 -143 33 0 32 0 0 119 c0 65 5 132 11 150
19 53 87 74 128 37 19 -17 20 -29 20 -145 0 -69 0 -134 0 -144 1 -14 8 -18 33
-15 l31 3 -1 147 c-2 208 -18 234 -144 229 -14 -1 -40 -12 -56 -26 -26 -22
-31 -23 -43 -9 -28 34 -78 47 -124 31z"/>
<path d="M1683 1420 c-44 -20 -67 -56 -67 -107 0 -44 24 -65 97 -88 121 -38
137 -46 137 -68 0 -28 -9 -41 -37 -56 -52 -27 -126 -6 -142 41 -9 24 -15 29
-38 26 -23 -2 -27 -7 -25 -27 10 -65 66 -103 152 -103 96 0 150 44 150 122 0
57 -28 82 -115 104 -109 27 -140 59 -99 100 30 31 127 15 138 -22 8 -23 55
-36 63 -17 8 22 -26 74 -59 91 -44 23 -110 24 -155 4z"/>
<path d="M2137 1430 c-20 -4 -49 -17 -62 -30 l-25 -23 0 26 c0 22 -4 26 -30
25 -16 -1 -31 -6 -32 -12 -3 -9 -2 -337 1 -358 1 -5 15 -8 31 -8 l30 0 1 120
c1 66 2 123 3 128 11 48 37 71 87 77 21 3 34 -3 48 -21 16 -20 19 -41 19 -141
1 -177 -2 -163 32 -163 l30 0 0 119 c0 65 5 132 11 150 19 53 87 74 128 37 19
-17 20 -29 20 -145 0 -69 0 -134 0 -144 1 -14 8 -18 33 -15 l31 3 -1 147 c-2
208 -18 234 -144 229 -14 -1 -40 -12 -56 -26 -29 -24 -30 -24 -47 -5 -24 26
-63 37 -108 30z"/>
</g>
</svg>
